<svg width="20" height="20" viewBox="0 0 20 20" fill="none" xmlns="http://www.w3.org/2000/svg">
<path d="M18.0556 0H1.43948C0.644854 0 0 0.629687 0 1.40508V18.093C0 18.8695 0.644854 19.5 1.43948 19.5H18.0556C18.8508 19.5 19.5 18.8695 19.5 18.093V1.40508C19.5 0.629687 18.8508 0 18.0556 0ZM5.78338 16.6167H2.88979V7.31115H5.78338V16.6167ZM4.33658 6.03877C3.40952 6.03877 2.66013 5.28748 2.66013 4.36123C2.66013 3.43633 3.40952 2.68504 4.33658 2.68504C5.26148 2.68504 6.01277 3.43633 6.01277 4.36123C6.01277 5.28748 5.26148 6.03877 4.33658 6.03877ZM16.6156 16.6167H13.7266V12.0916C13.7266 11.0121 13.7055 9.62406 12.2233 9.62406C10.718 9.62406 10.4886 10.7998 10.4886 12.0134V16.617H7.59742V7.31115H10.3721V8.5819H10.4116C10.7979 7.85065 11.7414 7.07904 13.1487 7.07904C16.0753 7.07904 16.6159 9.00575 16.6159 11.5123L16.6156 16.6167Z" fill="#001440"/>
</svg>
