<svg width="24" height="21" viewBox="0 0 24 21" fill="none" xmlns="http://www.w3.org/2000/svg">
<path d="M23.993 3.03108C23.1107 3.42205 22.1628 3.68622 21.1664 3.80563C22.1829 3.19698 22.9627 2.23117 23.3305 1.0815C22.3795 1.64577 21.3259 2.05576 20.2048 2.27555C19.3066 1.32031 18.028 0.722229 16.6121 0.722229C13.8943 0.722229 11.6901 2.92647 11.6901 5.64637C11.6901 6.031 11.7344 6.40506 11.8169 6.76645C7.72434 6.5604 4.09887 4.60025 1.67061 1.62252C1.24794 2.35163 1.0049 3.19698 1.0049 4.09727C1.0049 5.80487 1.87455 7.31276 3.19435 8.19508C2.38704 8.16867 1.62835 7.94782 0.964749 7.57904V7.64244C0.964749 10.0274 2.66072 12.0171 4.91357 12.4694C4.49935 12.5814 4.06505 12.6405 3.61702 12.6405C3.30002 12.6405 2.99041 12.6109 2.69031 12.5539C3.31692 14.5087 5.13442 15.9332 7.28899 15.9712C5.60358 17.2921 3.48071 18.0793 1.17503 18.0793C0.777716 18.0793 0.385687 18.056 0 18.0106C2.17888 19.4086 4.76563 20.2222 7.54471 20.2222C16.6005 20.2222 21.551 12.7219 21.551 6.21698C21.551 6.00564 21.5457 5.79219 21.5362 5.58085C22.4978 4.88556 23.3326 4.02013 23.9909 3.03425L23.993 3.03108Z" fill="#001440"/>
</svg>
