<svg width="27" height="21" viewBox="0 0 27 21" fill="none" xmlns="http://www.w3.org/2000/svg">
<path d="M26.3407 7.16129C26.5388 7.00387 26.8333 7.15114 26.8333 7.39996V17.7847C26.8333 19.1304 25.7415 20.2222 24.3958 20.2222H3.27081C1.92511 20.2222 0.833313 19.1304 0.833313 17.7847V7.40504C0.833313 7.15114 1.12277 7.00895 1.32589 7.16637C2.46339 8.04996 3.97159 9.17223 9.15128 12.9351C10.2228 13.7172 12.0306 15.3625 13.8333 15.3523C15.6462 15.3675 17.4896 13.6867 18.5204 12.9351C23.7001 9.17223 25.2032 8.04489 26.3407 7.16129ZM13.8333 13.7222C15.0114 13.7425 16.7075 12.2394 17.5607 11.6199C24.2993 6.72965 24.8122 6.30309 26.3661 5.08434C26.6607 4.85582 26.8333 4.50035 26.8333 4.12457V3.15973C26.8333 1.81403 25.7415 0.722229 24.3958 0.722229H3.27081C1.92511 0.722229 0.833313 1.81403 0.833313 3.15973V4.12457C0.833313 4.50035 1.00597 4.85074 1.3005 5.08434C2.85441 6.29801 3.3673 6.72965 10.106 11.6199C10.9591 12.2394 12.6552 13.7425 13.8333 13.7222Z" fill="#001440"/>
</svg>
