<svg width="22" height="21" viewBox="0 0 22 21" fill="none" xmlns="http://www.w3.org/2000/svg">
<path d="M11.3056 0.000535949C8.55752 -0.0273888 5.91083 1.03691 3.94715 2.95953C1.98347 4.88215 0.863485 7.50578 0.833344 10.2538C0.843932 12.4255 1.54254 14.538 2.82884 16.2878C4.11513 18.0377 5.92291 19.3348 7.99254 19.993C8.51615 20.0882 8.70655 19.774 8.70655 19.4979C8.70655 19.2218 8.70655 18.6125 8.70655 17.7557C5.79337 18.3745 5.17456 16.3848 5.17456 16.3848C4.98063 15.7602 4.56834 15.2262 4.01309 14.8806C3.06107 14.2523 4.08925 14.2618 4.08925 14.2618C4.41832 14.3058 4.73316 14.4237 5.01015 14.6067C5.28715 14.7897 5.51911 15.0331 5.68865 15.3185C5.98409 15.8308 6.46886 16.2067 7.03862 16.3651C7.60838 16.5236 8.21759 16.452 8.73511 16.1658C8.78834 15.6445 9.02442 15.1588 9.40153 14.7949C7.0786 14.5379 4.64142 13.662 4.64142 9.73018C4.62065 8.70455 4.99962 7.71105 5.69817 6.9598C5.38003 6.07925 5.41759 5.10937 5.80289 4.25607C5.80289 4.25607 6.68827 3.97998 8.65895 5.30329C10.3744 4.84617 12.1796 4.84617 13.8951 5.30329C15.8943 3.97998 16.7511 4.25607 16.7511 4.25607C17.1364 5.10937 17.174 6.07925 16.8558 6.9598C17.5706 7.69728 17.9701 8.68411 17.9697 9.71114C17.9697 13.6525 15.5135 14.5188 13.2096 14.7759C13.4619 15.0208 13.6567 15.3186 13.7802 15.6478C13.9037 15.977 13.9526 16.3295 13.9236 16.6799V19.4884C13.9236 19.4884 14.114 20.0882 14.6376 19.9834C16.7014 19.3212 18.5031 18.0238 19.7854 16.2764C21.0677 14.529 21.765 12.4211 21.7778 10.2538C21.7476 7.50578 20.6277 4.88215 18.664 2.95953C16.7003 1.03691 14.0536 -0.0273888 11.3056 0.000535949Z" fill="#001440"/>
</svg>
